<svg width="166" height="63" viewBox="0 0 166 63" fill="none" xmlns="http://www.w3.org/2000/svg">
<g clip-path="url(#clip0_91_2888)">
<path d="M8.73307 29.5627C6.56938 29.5627 4.85255 29.1728 3.58256 28.3932C2.33609 27.59 1.45415 26.4796 0.936749 25.0621C0.419346 23.621 0.160645 21.9318 0.160645 19.9945V9.64678C0.160645 7.66228 0.419346 5.96128 0.936749 4.54378C1.45415 3.10265 2.33609 1.99228 3.58256 1.21265C4.85255 0.433025 6.56938 0.0432129 8.73307 0.0432129C10.8497 0.0432129 12.496 0.397587 13.6719 1.10634C14.8713 1.79146 15.718 2.76009 16.2119 4.01221C16.7058 5.26434 16.9527 6.70546 16.9527 8.33559V10.8162H10.7792V7.94578C10.7792 7.37878 10.7439 6.8354 10.6733 6.31565C10.6263 5.7959 10.4617 5.37065 10.1794 5.0399C9.89722 4.68553 9.4151 4.50834 8.73307 4.50834C8.07455 4.50834 7.58067 4.68553 7.25141 5.0399C6.94567 5.39428 6.74577 5.84315 6.6517 6.38653C6.58114 6.90628 6.54586 7.46146 6.54586 8.05209V21.5538C6.54586 22.1917 6.5929 22.7823 6.68697 23.3257C6.80456 23.8454 7.01623 24.2707 7.32197 24.6014C7.65122 24.9085 8.12159 25.0621 8.73307 25.0621C9.39158 25.0621 9.86194 24.8967 10.1442 24.566C10.4264 24.2116 10.6028 23.7627 10.6733 23.2193C10.7439 22.676 10.7792 22.1208 10.7792 21.5538V18.5416H16.9527V21.0222C16.9527 22.6523 16.7058 24.1171 16.2119 25.4165C15.7415 26.6922 14.9066 27.7081 13.7072 28.4641C12.5313 29.1965 10.8732 29.5627 8.73307 29.5627ZM28.6111 29.5627C26.471 29.5627 24.7776 29.1847 23.5312 28.4287C22.2847 27.6727 21.391 26.5859 20.8501 25.1684C20.3092 23.7509 20.0387 22.0617 20.0387 20.1008V9.43415C20.0387 7.44965 20.3092 5.76046 20.8501 4.36659C21.391 2.97271 22.2847 1.90959 23.5312 1.17721C24.7776 0.421212 26.471 0.0432129 28.6111 0.0432129C30.7748 0.0432129 32.4799 0.421212 33.7264 1.17721C34.9963 1.90959 35.9018 2.97271 36.4427 4.36659C36.9836 5.76046 37.2541 7.44965 37.2541 9.43415V20.1008C37.2541 22.0617 36.9836 23.7509 36.4427 25.1684C35.9018 26.5859 34.9963 27.6727 33.7264 28.4287C32.4799 29.1847 30.7748 29.5627 28.6111 29.5627ZM28.6111 25.0621C29.2696 25.0621 29.7518 24.8967 30.0575 24.566C30.3632 24.2352 30.5631 23.81 30.6572 23.2902C30.7513 22.7705 30.7983 22.2389 30.7983 21.6955V7.8749C30.7983 7.3079 30.7513 6.77634 30.6572 6.28021C30.5631 5.76046 30.3632 5.33521 30.0575 5.00446C29.7518 4.67371 29.2696 4.50834 28.6111 4.50834C27.9996 4.50834 27.541 4.67371 27.2353 5.00446C26.9296 5.33521 26.7297 5.76046 26.6356 6.28021C26.5415 6.77634 26.4945 7.3079 26.4945 7.8749V21.6955C26.4945 22.2389 26.5298 22.7705 26.6003 23.2902C26.6944 23.81 26.8825 24.2352 27.1647 24.566C27.4705 24.8967 27.9526 25.0621 28.6111 25.0621ZM41.0972 29.1374V0.433025H47.4118V24.8495H53.9735V29.1374H41.0972ZM56.7376 29.1374V0.433025H63.0523V24.8495H69.6139V29.1374H56.7376ZM72.3783 29.1374V0.433025H85.2193V4.7564H78.693V11.8793H83.6671V16.2736H78.693V24.8495H85.2898V29.1374H72.3783ZM96.3411 29.5627C94.1774 29.5627 92.4606 29.1728 91.1906 28.3932C89.9441 27.59 89.0622 26.4796 88.5448 25.0621C88.0274 23.621 87.7687 21.9318 87.7687 19.9945V9.64678C87.7687 7.66228 88.0274 5.96128 88.5448 4.54378C89.0622 3.10265 89.9441 1.99228 91.1906 1.21265C92.4606 0.433025 94.1774 0.0432129 96.3411 0.0432129C98.4577 0.0432129 100.104 0.397587 101.28 1.10634C102.479 1.79146 103.326 2.76009 103.82 4.01221C104.314 5.26434 104.561 6.70546 104.561 8.33559V10.8162H98.3872V7.94578C98.3872 7.37878 98.3519 6.8354 98.2813 6.31565C98.2343 5.7959 98.0697 5.37065 97.7875 5.0399C97.5052 4.68553 97.0231 4.50834 96.3411 4.50834C95.6826 4.50834 95.1887 4.68553 94.8594 5.0399C94.5537 5.39428 94.3538 5.84315 94.2597 6.38653C94.1892 6.90628 94.1539 7.46146 94.1539 8.05209V21.5538C94.1539 22.1917 94.2009 22.7823 94.295 23.3257C94.4126 23.8454 94.6243 24.2707 94.93 24.6014C95.2592 24.9085 95.7296 25.0621 96.3411 25.0621C96.9996 25.0621 97.47 24.8967 97.7522 24.566C98.0344 24.2116 98.2108 23.7627 98.2813 23.2193C98.3519 22.676 98.3872 22.1208 98.3872 21.5538V18.5416H104.561V21.0222C104.561 22.6523 104.314 24.1171 103.82 25.4165C103.35 26.6922 102.515 27.7081 101.315 28.4641C100.139 29.1965 98.4812 29.5627 96.3411 29.5627ZM110.61 29.1374V5.14621H106.306V0.433025H121.229V5.14621H116.96V29.1374H110.61ZM123.779 29.1374V0.433025H130.094V29.1374H123.779ZM138.165 29.1374L133.014 0.433025H138.412L141.481 19.9237L144.338 0.433025H150.053L144.832 29.1374H138.165ZM152.924 29.1374V0.433025H165.765V4.7564H159.238V11.8793H164.213V16.2736H159.238V24.8495H165.835V29.1374H152.924ZM0.548696 62.4093V33.7049H10.1442C11.861 33.7049 13.2721 34.0357 14.3775 34.6972C15.4828 35.335 16.306 36.28 16.8469 37.5322C17.3878 38.7607 17.6583 40.2608 17.6583 42.0327C17.6583 44.2535 17.2937 45.9545 16.5647 47.1357C15.8356 48.2933 14.8478 49.0966 13.6014 49.5455C12.3549 49.9943 10.9555 50.2188 9.40334 50.2188H6.86336V62.4093H0.548696ZM6.86336 45.7891H8.98001C9.75611 45.7891 10.3441 45.6473 10.7439 45.3638C11.1437 45.0803 11.4024 44.6551 11.52 44.0881C11.6611 43.5211 11.7316 42.8005 11.7316 41.9264C11.7316 41.194 11.6729 40.5562 11.5553 40.0128C11.4612 39.4458 11.2142 38.9969 10.8144 38.6662C10.4146 38.3354 9.79139 38.17 8.94473 38.17H6.86336V45.7891ZM28.9572 62.8345C26.77 62.8345 25.0532 62.4802 23.8067 61.7714C22.5838 61.039 21.7254 59.9877 21.2315 58.6175C20.7376 57.2236 20.4906 55.5226 20.4906 53.5145V33.7049H26.7348V54.4713C26.7348 55.0619 26.7818 55.6525 26.8759 56.2432C26.9699 56.8338 27.1698 57.3181 27.4756 57.6961C27.8048 58.0741 28.2987 58.2631 28.9572 58.2631C29.6393 58.2631 30.1331 58.0741 30.4389 57.6961C30.7446 57.3181 30.9328 56.8338 31.0033 56.2432C31.0974 55.6525 31.1444 55.0619 31.1444 54.4713V33.7049H37.4238V53.5145C37.4238 55.5226 37.1651 57.2236 36.6477 58.6175C36.1538 59.9877 35.2954 61.039 34.0725 61.7714C32.8495 62.4802 31.1444 62.8345 28.9572 62.8345ZM41.4415 62.4093V33.7049H47.7562V58.1213H54.3178V62.4093H41.4415ZM64.3913 62.8345C62.6039 62.8345 61.1105 62.5156 59.911 61.8777C58.7116 61.2398 57.8062 60.2594 57.1947 58.9364C56.5832 57.5898 56.2422 55.8533 56.1716 53.7271L61.5691 52.912C61.5926 54.1405 61.6984 55.1328 61.8866 55.8888C62.0982 56.6448 62.3805 57.1882 62.7332 57.5189C63.1095 57.8497 63.5564 58.015 64.0738 58.015C64.7323 58.015 65.1556 57.7906 65.3438 57.3417C65.5554 56.8928 65.6613 56.4203 65.6613 55.9242C65.6613 54.743 65.379 53.7507 64.8146 52.9475C64.2502 52.1206 63.4858 51.2937 62.5216 50.4668L60.0522 48.3052C58.9703 47.3838 58.0531 46.3443 57.3005 45.1867C56.5714 44.0054 56.2069 42.5525 56.2069 40.8278C56.2069 38.3945 56.9242 36.5399 58.3588 35.2642C59.7934 33.9648 61.7455 33.3151 64.2149 33.3151C65.7436 33.3151 66.9665 33.575 67.8837 34.0947C68.8245 34.6145 69.53 35.2996 70.0004 36.1501C70.4943 36.977 70.8235 37.8629 70.9882 38.8079C71.1763 39.7293 71.2821 40.6152 71.3057 41.4657L65.8729 42.139C65.8494 41.2885 65.7906 40.5562 65.6965 39.9419C65.626 39.304 65.4614 38.8197 65.2027 38.489C64.944 38.1346 64.5441 37.9574 64.0032 37.9574C63.4153 37.9574 62.9802 38.2055 62.698 38.7016C62.4393 39.1977 62.3099 39.6938 62.3099 40.19C62.3099 41.2531 62.5569 42.1272 63.0507 42.8123C63.5681 43.4738 64.2384 44.1708 65.0616 44.9032L67.4251 46.994C68.6716 48.0571 69.7182 49.262 70.5648 50.6086C71.435 51.9552 71.8701 53.6208 71.8701 55.6053C71.8701 56.9519 71.5644 58.1804 70.9529 59.2908C70.3414 60.3775 69.4712 61.2398 68.3424 61.8777C67.237 62.5156 65.92 62.8345 64.3913 62.8345ZM74.9277 62.4093V33.7049H87.7687V38.0283H81.2423V45.1512H86.2165V49.5455H81.2423V58.1213H87.8392V62.4093H74.9277Z" fill="#FEFDFB"/>
</g>
<defs>
<clipPath id="clip0_91_2888">
<rect width="166" height="63" fill="white"/>
</clipPath>
</defs>
</svg>
